# xmcd CD database file
# Copyright (C) 1996 Ti Kan
#
# Track frame offsets:
#  150
#  20607
#  42125
#  61687
#  89915
#  107002
#  124417
#  140737
#  157732
#  181000
#
# Disc length: 2843 seconds
#
# Revision: 1
# Processed by: cddbd v1.4b41PL1 Copyright (c) Steve Scherf et al.
# Submitted via: CDWizzard Release:4.12
#
DISCID=810b190a
DTITLE=Magic Slim and the Teardrops - Highway Is My Home
DYEAR=1900
DGENRE=
TTITLE0=Highway Is My Home
TTITLE1=Living In My Neighborhood
TTITLE2=I Love You Baby
TTITLE3=Country Girl
TTITLE4=Man Or Mouse
TTITLE5=Help Me
TTITLE6=I'm Mad
TTITLE7=Tell Me Baby
TTITLE8=The Sky Is Crying
TTITLE9=Something More
EXTD=
EXTT0=
EXTT1=
EXTT2=
EXTT3=
EXTT4=
EXTT5=
EXTT6=
EXTT7=
EXTT8=
EXTT9=
PLAYORDER=
